<svg xmlns="http://www.w3.org/2000/svg" xmlns:xlink="http://www.w3.org/1999/xlink" viewBox="0 0 311.88 507.4"><defs><style>.cls-1{fill:url(#linear-gradient);}.cls-2{fill:url(#linear-gradient-2);}</style><linearGradient id="linear-gradient" x1="370.76" y1="355.74" x2="3.41" y2="19.61" gradientUnits="userSpaceOnUse"><stop offset="0" stop-color="#1e3ad6"/><stop offset="0.39" stop-color="#307ee7"/><stop offset="0.78" stop-color="#44c6fa"/></linearGradient><linearGradient id="linear-gradient-2" x1="276.21" y1="459.08" x2="-91.14" y2="122.95" xlink:href="#linear-gradient"/></defs><title>Artboard 134</title><g id="UI"><path class="cls-1" d="M280.89,45.32C248.35,15.78,210.47.16,163.65,0,159.54.27,152.71.41,146,1.24,99.83,6.87,62.45,28.4,34,64.88,11.25,94.16.1,127.65,0,165c-.1,40,11.06,77.32,39.06,107.29,6.79,7.27,54.13,55.46,80.12,81.37,18,18,46.43,12.77,56.53-10.05a32.87,32.87,0,0,0-6.93-36.41c-25.09-25.48-50.75-50.43-75.33-76.4-21.47-22.7-29.13-50.44-24.3-81.19C77.61,95.73,130.57,59,184.28,69.38A100.07,100.07,0,0,1,236,96.59c17.59,17.08,45.29,11.79,55.24-10.61C296.55,73.94,294.6,57.76,280.89,45.32Z"/><path class="cls-2" d="M270.35,232.49c-26-27.88-52.74-52.42-80-78.64-8.67-8.95-31.23-11.15-44.61,2.24s-11.59,34-4.46,42.38c0,0,47.64,48.05,74.24,74.8,18.87,19,27.9,41.92,28.29,70.33-.36,3.81-.51,9.46-1.48,15a97.84,97.84,0,0,1-99.63,81c-26-.68-48.53-10.81-67.26-29.2a33.71,33.71,0,0,0-47.83.4C14.32,424,14,445.09,27.78,458.37a184.43,184.43,0,0,0,26.89,21.82c35.4,23,74.3,31.6,116.09,25.1,49.4-7.68,87.94-32.86,115.06-74.67,20.39-31.42,28.74-66.21,25.31-103.7C307.83,291,294.91,258.81,270.35,232.49Z"/></g></svg>