<svg xmlns="http://www.w3.org/2000/svg" width="24" height="20" viewBox="0 0 24 20" fill="none">
<path fill-rule="evenodd" clip-rule="evenodd" d="M18 4L10 9L2 4V2L10 7L18 2V4ZM18 0H2C0.890015 0 0 0.890015 0 2V14C0 14.5304 0.210693 15.0392 0.585815 15.4142C0.960815 15.7893 1.4696 16 2 16H11.0619C11.021 15.6724 11 15.3386 11 15C11 10.5817 14.5817 7 19 7C19.3386 7 19.6724 7.021 20 7.06189V2C20 0.890015 19.1 0 18 0ZM19.6722 17.9889C18.1 17.1888 16.8112 15.9 16.0111 14.3278L17.2333 13.1056C17.3889 12.95 17.4333 12.7333 17.3722 12.5389C17.1666 11.9166 17.0555 11.25 17.0555 10.5555C17.0555 10.4082 16.9971 10.2668 16.8928 10.1627C16.85 10.1199 16.8008 10.0847 16.7474 10.0582C16.6713 10.0203 16.5867 10 16.5 10H14.5555C14.4082 10 14.2668 10.0585 14.1627 10.1627C14.0585 10.2668 14 10.4082 14 10.5555C14 13.0604 14.995 15.4626 16.7662 17.2338C18.5374 19.005 20.9396 20 23.4445 20C23.5918 20 23.7332 19.9415 23.8373 19.8373C23.9415 19.7332 24 19.5918 24 19.4445V17.5C24 17.3527 23.9415 17.2113 23.8373 17.1072C23.7778 17.0476 23.7062 17.0029 23.6282 16.9757C23.5696 16.9552 23.5076 16.9445 23.4445 16.9445C22.75 16.9445 22.0834 16.8334 21.4611 16.6278C21.2667 16.5667 21.05 16.6111 20.8944 16.7667L19.6722 17.9889Z" fill="#ffffff"/>
</svg>